<?xml version="1.0" encoding="UTF-8" standalone="no"?>
<svg xmlns:dc="http://purl.org/dc/elements/1.1/" xmlns:cc="http://creativecommons.org/ns#"
  xmlns:rdf="http://www.w3.org/1999/02/22-rdf-syntax-ns#" xmlns:svg="http://www.w3.org/2000/svg"
  xmlns="http://www.w3.org/2000/svg" viewBox="0 0 1600 1600" height="1600" width="1600" xml:space="preserve" id="svg2"
  version="1.1">
  <metadata id="metadata8">
    <rdf:RDF>
      <cc:Work rdf:about="">
        <dc:format>image/svg+xml</dc:format>
        <dc:type rdf:resource="http://purl.org/dc/dcmitype/StillImage" />
      </cc:Work>
    </rdf:RDF>
  </metadata>
  <defs id="defs6">
    <clipPath id="clipPath20" clipPathUnits="userSpaceOnUse">
      <path id="path18" d="M 0,1200 H 1200 V 0 H 0 Z" />
    </clipPath>
  </defs>
  <g transform="matrix(1.3333333,0,0,-1.3333333,0,1600)" id="g10">
    <path id="path12" style="fill:#df3f3e;fill-opacity:1;fill-rule:nonzero;stroke:none" d="M 0,0 H 1200 V 1200 H 0 Z" />
    <g id="g14">
      <g clip-path="url(#clipPath20)" id="g16">
        <g transform="translate(777.7217,684.4463)" id="g22">
          <path id="path24" style="fill:#000000;fill-opacity:1;fill-rule:nonzero;stroke:none"
            d="m 0,0 c -31.968,61.652 -100.471,110.746 -184.957,110.746 -132.438,0 -232.909,-106.18 -232.909,-250.035 0,-143.855 100.471,-250.034 232.909,-250.034 84.486,0 152.989,47.952 184.957,110.746 l 122.103,-94.856 c -57.001,-84.377 -150.394,-159.745 -307.06,-159.745 -222.633,0 -399.598,159.839 -399.598,393.889 0,234.051 176.965,393.89 399.598,393.89 75.076,0 135.836,-17.095 184.96,-44.165" />
        </g>
        <g transform="translate(777.1377,1039.8989)" id="g26">
          <path id="path28" style="fill:#000000;fill-opacity:1;fill-rule:nonzero;stroke:none"
            d="m 0,0 c 0,-43.551 -35.306,-78.857 -78.857,-78.857 -43.552,0 -78.857,35.306 -78.857,78.857 0,43.551 35.305,78.857 78.857,78.857 C -35.306,78.857 0,43.551 0,0" />
        </g>
        <g transform="translate(648.9346,974.8159)" id="g30">
          <path id="path32" style="fill:#000000;fill-opacity:1;fill-rule:nonzero;stroke:none"
            d="m 0,0 c 0,-32.612 -26.437,-59.05 -59.05,-59.05 -32.613,0 -59.05,26.438 -59.05,59.05 0,32.612 26.437,59.05 59.05,59.05 C -26.437,59.05 0,32.612 0,0" />
        </g>
        <g transform="translate(742.8916,611.02)" id="g34">
          <path id="path36" style="fill:#000000;fill-opacity:1;fill-rule:nonzero;stroke:none"
            d="m 0,0 c 0,-37.103 -30.078,-67.181 -67.182,-67.181 -37.103,0 -67.181,30.078 -67.181,67.181 0,37.104 30.078,67.182 67.181,67.182 C -30.078,67.182 0,37.104 0,0" />
        </g>
        <g transform="translate(776.9844,765.0591)" id="g38">
          <path id="path40" style="fill:#000000;fill-opacity:1;fill-rule:nonzero;stroke:none"
            d="M 0,0 -246.223,126.408 V 213.88 L 0.153,280.861 Z" />
        </g>
        <g transform="translate(777.1377,684.979)" id="g42">
          <path id="path44" style="fill:#000000;fill-opacity:1;fill-rule:nonzero;stroke:none"
            d="M 0,0 H 163.58 L 0,-147.917 Z" />
        </g>
      </g>
    </g>
  </g>
</svg>