<?xml version="1.0" encoding="utf-8"?>
<!-- Generator: Adobe Illustrator 24.0.2, SVG Export Plug-In . SVG Version: 6.00 Build 0)  -->
<svg version="1.1" id="Layer_7" xmlns="http://www.w3.org/2000/svg" xmlns:xlink="http://www.w3.org/1999/xlink" x="0px" y="0px"
	 viewBox="0 0 1200 1200" style="enable-background:new 0 0 1200 1200;" xml:space="preserve">
<style type="text/css">
	.st0{fill:#DF3F3E;}
</style>
<g>
	<path class="st0" d="M778,515.5c-32-61.6-100.8-110.8-185.2-110.8c-132.4,0-232.9,106.2-232.9,250s100.5,250,232.9,250
		c84.5,0,153-48,185-110.8L899.8,889c-57,84.4-150.4,159.7-307.1,159.7c-222.6,0-399.6-159.8-399.6-393.9s177-393.9,399.6-393.9
		c75.1,0,136.1,17.1,185.2,44.2V515.5z"/>
</g>
<circle class="st0" cx="699.1" cy="155" r="78.9"/>
<circle class="st0" cx="589.9" cy="220.8" r="59"/>
<circle class="st0" cx="675.7" cy="589" r="67.2"/>
<polygon class="st0" points="778,431.2 530.8,305.9 530.8,218.4 778,151 "/>
<polygon class="st0" points="777.8,515.7 941.4,515.7 777.8,663.6 "/>
</svg>
