<svg id="Layer_1" data-name="Layer 1" xmlns="http://www.w3.org/2000/svg" viewBox="0 0 723.82 795.53">
    <defs>
        <style>
            .cls-1 {
                fill: #df3f3e;
            }

            .cls-2 {
                fill: #fff;
            }

            .cls-25 {
                fill: #387cf4;
            }

            .cls-48 {
                fill: none;
                stroke: #387cf4;
                stroke-miterlimit: 10;
                stroke-width: 5px;
            }
        </style>
    </defs>
    <title>TriToken_Legend_03</title>

    <!-- chicken -->
    <g id="Layer_5" data-name="Layer 5">
        <circle id="RED" class="cls-1" cx="37.5" cy="37.5" r="37.5" />
    </g>
    <g id="Layer_1_copy" data-name="Layer 1 copy">
        <g id="Chicken">
            <path class="cls-2"
                d="M185.57,198.6l-1.18-9.35c-.26-2.05-1.53-3.41-3.41-3.41a3.46,3.46,0,0,0-3.37,3.54,1.91,1.91,0,0,0-2.7.13,2,2,0,0,0-.46,1.65l1,5,4,.53,0-.25Z"
                transform="translate(-129.4 -177.63)" />
            <path class="cls-2"
                d="M184.5,201.64l-.39-4a1.06,1.06,0,0,1,.95-1.15,1,1,0,0,1,.59.12l4.08,2.16a1.06,1.06,0,0,1,0,1.88L186,202.48a1,1,0,0,1-1.41-.47A1.2,1.2,0,0,1,184.5,201.64Z"
                transform="translate(-129.4 -177.63)" />
            <path class="cls-2"
                d="M187.65,220.12c-.84-9.72-1.71-17.67-2.08-21.52-.41-4.17-3.26-7-7.25-6.74a6.77,6.77,0,0,0-6.26,6.79v8.54a2.89,2.89,0,0,1-2.89,2.89H138.33a2.89,2.89,0,0,0-2.74,3.82,11.48,11.48,0,0,0,9.66,7.6,1.28,1.28,0,0,1,1.17,1.27v0c0,10.54,10.66,12.92,19.75,12.92C179.19,235.71,188.4,228.82,187.65,220.12Zm-5-19.37a1.41,1.41,0,1,1,1.41-1.41h0a1.41,1.41,0,0,1-1.41,1.41Z"
                transform="translate(-129.4 -177.63)" />
            <path class="cls-2"
                d="M159.93,244.18a2.23,2.23,0,0,1-1.4-.49,2.27,2.27,0,0,1-.36-3.17l5.37-6.72a4.29,4.29,0,0,1,6-.68,4.37,4.37,0,0,1,.68.68l5.36,6.72a2.25,2.25,0,1,1-3.51,2.81l-5.21-6.52-5.2,6.52A2.23,2.23,0,0,1,159.93,244.18Z"
                transform="translate(-129.4 -177.63)" />
        </g>
    </g>

    <!-- egg -->
    <g id="Layer_5-2" data-name="Layer 5">
        <circle id="RED-2" data-name="RED" class="cls-1" cx="37.5" cy="127.63" r="37.5" />
    </g>
    <path class="cls-2"
        d="M166.58,280.68c-9.68,0-19.93,14-19.93,27.28,0,12.55,8.71,22.38,19.83,22.38,10.16,0,20.67-8.37,20.67-22.38C187.15,295.47,176,280.68,166.58,280.68Zm-.61,12c-3.91,2.68-7.26,8.45-8.15,14a2.25,2.25,0,0,1-2.22,1.9l-.36,0a2.25,2.25,0,0,1-1.86-2.58c1.08-6.8,5.12-13.65,10-17a2.25,2.25,0,1,1,2.55,3.71Z"
        transform="translate(-129.4 -177.63)" />

    <!-- worm -->
    <g id="Layer_5-3" data-name="Layer 5">
        <circle id="RED-3" data-name="RED" class="cls-1" cx="37.5" cy="217.77" r="37.5" />
    </g>
    <g id="Layer_1_copy-2" data-name="Layer 1 copy">
        <g id="Feed">
            <path class="cls-2"
                d="M187.41,376.13a1.49,1.49,0,0,0,1.22-1.72,1.48,1.48,0,0,0-1.71-1.22,7.89,7.89,0,0,0-5.12,3.5,8.74,8.74,0,0,0-.84,1.53,8.56,8.56,0,0,0-4,.33s0-.07,0-.11a9.93,9.93,0,0,0-1-1.75,7.89,7.89,0,0,0-5.12-3.5,1.47,1.47,0,0,0-1.71,1.19v0a1.49,1.49,0,0,0,1.22,1.72,5,5,0,0,1,3.17,2.27,7.19,7.19,0,0,1,.66,1.22,1,1,0,0,0,.17.28,8.85,8.85,0,0,0,.22,14.34c0,.05,0,.09,0,.14v11a.92.92,0,0,1-.45.86,1.13,1.13,0,0,1-1.07,0,1.35,1.35,0,0,1-.49-1.22,10.76,10.76,0,0,0-10.65-10.86h-.07l-.84,0h-.07a10.78,10.78,0,0,0-10.76,10.8c0,2.17-1.65,1.2-3.07,1.43a4.89,4.89,0,0,0-4.89,4.89c0,.14,0,.33,0,.51a.78.78,0,0,0,0,.14,4.21,4.21,0,0,0,4.2,4.21h.22c.15,0,.31,0,.47,0h2.05c5.28,0,10.25-3.5,10.69-8.81.27-3.35.7-3.33,1.45-3.3s1.36,0,1.34,2.77c.05,5.65,4.2,9.3,10.61,9.32h0l.45,0a8.89,8.89,0,0,0,1.15-.08h0c6.09-.46,9.59-3.64,9.59-8.69V394.45a8.85,8.85,0,0,0-.66-15.3,6.93,6.93,0,0,1,.43-.75A5,5,0,0,1,187.41,376.13Zm-5.93,31.23c0,3.44-2.3,5.37-6.72,5.71h-.17c-.45,0-.91.05-1.41.05-1.77,0-7.55-.48-7.6-6.34,0-1.4,0-5.67-4.23-5.75-3.67-.19-4.27,2.9-4.52,6-.56,7-9.9,6-10.05,6a1.91,1.91,0,0,1-1.6-1.64.65.65,0,0,1,0-.24,1.84,1.84,0,0,1,.56-1.35,1.9,1.9,0,0,1,1.35-.56c.54-.12,6.05,1,6.05-4.41a7.8,7.8,0,0,1,7.76-7.81h.05l.84,0a7.76,7.76,0,0,1,7.77,7.78V405a4.21,4.21,0,0,0,2,3.82,4.12,4.12,0,0,0,4,0,3.87,3.87,0,0,0,1.94-3.45v-9.76a8.73,8.73,0,0,0,4,.1v11.68ZM185.57,387a5.9,5.9,0,1,1-5.9-5.9,5.9,5.9,0,0,1,5.9,5.9Z"
                transform="translate(-129.4 -177.63)" />
        </g>
    </g>

    <!-- kg -->
    <g id="Layer_5-4" data-name="Layer 5">
        <circle id="BLUE" class="cls-25" cx="37.5" cy="758.03" r="37.5" />
    </g>
    <path class="cls-2"
        d="M176.47,923.48h-6.22a7.86,7.86,0,0,0,.9-3.66,8.13,8.13,0,0,0-8.31-8.13,8.24,8.24,0,0,0-8,8.16,7.86,7.86,0,0,0,.9,3.63h-6.22a1.43,1.43,0,0,0-1.4,1.18L143,955.16a1.42,1.42,0,0,0,1.4,1.66h37.34a1.42,1.42,0,0,0,1.4-1.66l-5.22-30.5A1.43,1.43,0,0,0,176.47,923.48Zm-14.16-7.21a3.62,3.62,0,1,1-2.84,2.84A3.63,3.63,0,0,1,162.31,916.27Z"
        transform="translate(-129.4 -177.63)" />
    <path class="cls-25" d="M153.23,933.51h2.53v5l4.64-5h3.11l-4.7,4.89,4.9,6.63h-3.05l-3.57-4.91-1.33,1.39V945h-2.53Z"
        transform="translate(-129.4 -177.63)" />
    <path class="cls-25"
        d="M164.61,946.77l.85-1.88a5.77,5.77,0,0,0,3,.81c1.71,0,2.52-.82,2.52-2.4v-.43a3.46,3.46,0,0,1-2.88,1.43,3.87,3.87,0,0,1-3.92-4.11v0a3.88,3.88,0,0,1,3.92-4.11,3.56,3.56,0,0,1,2.84,1.31v-1.15h2.5V943a4.74,4.74,0,0,1-1.12,3.47,5.18,5.18,0,0,1-3.8,1.18A8.33,8.33,0,0,1,164.61,946.77Zm6.35-6.58v0a2.15,2.15,0,0,0-4.3,0v0a2,2,0,0,0,2.14,2A2,2,0,0,0,171,940.19Z"
        transform="translate(-129.4 -177.63)" />
    <rect class="cls-2" x="54.82" y="737.89" width="3" height="12.04" rx="0.75" />
    <path class="cls-2"
        d="M182,920.13l3.16-3.16a.8.8,0,0,1,1.13,0l3.16,3.16a.8.8,0,0,0,1.37-.57v-2a.82.82,0,0,0-.24-.57l-4.29-4.29a.8.8,0,0,0-1.13,0l-4.29,4.29a.81.81,0,0,0-.23.57v2A.79.79,0,0,0,182,920.13Z"
        transform="translate(-129.4 -177.63)" />

    <!-- fire -->
    <g id="Layer_5-5" data-name="Layer 5">
        <circle id="RED-4" data-name="RED" class="cls-25" cx="37.5" cy="668.16" r="37.5" />
    </g>
    <g id="Layer_1_copy-3" data-name="Layer 1 copy">
        <path class="cls-2"
            d="M189.4,855.13c0,5.63-4.48,14.08-12.54,17.84a.73.73,0,0,1-.9-1.08,14.76,14.76,0,0,0,2.63-8.42c0-5.32-2.76-7.59-2.76-7.59a14.85,14.85,0,0,1-3.25,5.75,1.87,1.87,0,0,1-3.08-2c3.18-8.25,3.33-11.18-2.58-14.75,2.47,9.41-9.11,10.53-9.11,21.16a11.46,11.46,0,0,0,1.8,5.74.74.74,0,0,1-1,1c-8.41-4.45-14.23-14.56-14.23-22.8,0-10.28,10-18.88,10.36-19.17h0a14.15,14.15,0,0,0,4.64,9.4.66.66,0,0,0,1.06-.76A20,20,0,0,1,158.55,828s0-.08,0-.11c.67-5.9,4.71-10.43,11.13-14.31C164.86,832,189.4,834.25,189.4,855.13Z"
            transform="translate(-129.4 -177.63)" />
    </g>

    <!-- pitchfork -->
    <g id="Layer_5-6" data-name="Layer 5">
        <circle id="BLUE-2" data-name="BLUE" class="cls-25" cx="37.5" cy="578.46" r="37.5" />
    </g>
    <path class="cls-2"
        d="M191.54,743.25l-11.36-11.36a2.15,2.15,0,0,0-1.51-.63h0a2.11,2.11,0,0,0-1.51.63l-.81.81A10.17,10.17,0,0,0,175,745.38l-15,15-2.56-2.56a6.74,6.74,0,0,0-9.51,0l-6.49,6.49A2.13,2.13,0,0,0,143,768h0a2.09,2.09,0,0,0,1.51-.63l6.49-6.49a2.46,2.46,0,0,1,3.48,0l.12.12-8.23,8.23a2.13,2.13,0,1,0,3,3l8.23-8.24,1.86,1.86-8.23,8.24a2.13,2.13,0,0,0,3,3l8.23-8.23.12.11a2.46,2.46,0,0,1,0,3.48l-6.5,6.5a2.13,2.13,0,0,0,3,3l6.5-6.5a6.74,6.74,0,0,0,0-9.51h0L163,763.43l15-15a10.17,10.17,0,0,0,12.68-1.32l.81-.81A2.14,2.14,0,0,0,191.54,743.25ZM187,744.7a5.89,5.89,0,0,1-7.6-.63,5.93,5.93,0,0,1-.63-7.6Z"
        transform="translate(-129.4 -177.63)" />

    <!-- lock -->
    <g id="Layer_5-7" data-name="Layer 5">
        <circle id="RED-5" data-name="RED" class="cls-25" cx="37.5" cy="488.43" r="37.5" />
    </g>
    <g id="Layer_1_copy-4" data-name="Layer 1 copy">
        <path class="cls-2"
            d="M167,661.52a6.65,6.65,0,0,0-2.47,12.82v5a2.33,2.33,0,0,0,4.65,0v-4.88A6.65,6.65,0,0,0,167,661.52Zm2,6.65a2,2,0,1,1-2-2h0A2,2,0,0,1,169,668.17Z"
            transform="translate(-129.4 -177.63)" />
        <path class="cls-2"
            d="M183.58,655h-2.71v-2.66a14.1,14.1,0,1,0-28.2,0v2.67h-2.44a2.33,2.33,0,0,0-2.33,2.32v29.27a2.33,2.33,0,0,0,2.33,2.33h33.35a2.32,2.32,0,0,0,2.32-2.33h0V657.37A2.32,2.32,0,0,0,183.58,655Zm-26.26,0v-2.66a9.45,9.45,0,1,1,18.9,0v2.67Zm23.93,4.65v24.63h-28.7V659.69h2.06a2.49,2.49,0,0,0,.77,0h22.78a2.49,2.49,0,0,0,.77,0Z"
            transform="translate(-129.4 -177.63)" />
    </g>

    <!-- eggs -->
    <g id="Layer_5-8" data-name="Layer 5">
        <circle id="BLUE-3" data-name="BLUE" class="cls-25" cx="37.5" cy="397.56" r="37.5" />
    </g>
    <path class="cls-2"
        d="M178.08,550.31c-8-.54-17.18,10.44-17.91,21.36-.69,10.33,5.94,18.9,15.09,19.51,8.37.56,17.48-5.75,18.25-17.28C194.2,563.61,185.84,550.82,178.08,550.31Z"
        transform="translate(-129.4 -177.63)" />
    <path class="cls-48"
        d="M153.54,559.69c-7.88,1.33-14.29,14.15-12.46,24.94,1.73,10.21,10.16,17,19.21,15.48,8.27-1.4,15.67-9.66,13.74-21.06C172.31,568.89,161.2,558.39,153.54,559.69Z"
        transform="translate(-129.4 -177.63)" />
    <path class="cls-2"
        d="M153.54,559.69c-7.88,1.33-14.29,14.15-12.46,24.94,1.73,10.21,10.16,17,19.21,15.48,8.27-1.4,15.67-9.66,13.74-21.06C172.31,568.89,161.2,558.39,153.54,559.69Z"
        transform="translate(-129.4 -177.63)" />

    <!-- shopping cart -->
    <g id="Layer_5-9" data-name="Layer 5">
        <circle id="RED-6" data-name="RED" class="cls-25" cx="37.5" cy="307.9" r="37.5" />
    </g>
    <path class="cls-2"
        d="M150.19,464h-4.47a1.94,1.94,0,1,0,0,3.88h4.47l6.38,17.55a5.82,5.82,0,0,0,.8,11.56h23.29a1.94,1.94,0,1,0,0-3.88H157.37a1.94,1.94,0,1,1,0-3.88h17.08A8.13,8.13,0,0,0,182,484l4.33-11.54a2,2,0,0,0-1.14-2.5,2,2,0,0,0-.68-.12H155.43a1.72,1.72,0,0,0-.39,0l-1.2-3.31A3.89,3.89,0,0,0,150.19,464Zm31.54,9.7-3.33,8.91a4.22,4.22,0,0,1-4,2.73H160.67l-4.24-11.64Z"
        transform="translate(-129.4 -177.63)" />
    <path class="cls-2"
        d="M153.49,504.76a5.82,5.82,0,1,0,5.82-5.82A5.81,5.81,0,0,0,153.49,504.76Zm7.76,0a1.94,1.94,0,1,1-1.94-1.94A1.94,1.94,0,0,1,161.25,504.76Z"
        transform="translate(-129.4 -177.63)" />
    <path class="cls-2"
        d="M176.78,498.94a5.82,5.82,0,1,0,5.82,5.82A5.83,5.83,0,0,0,176.78,498.94Zm0,7.76a1.94,1.94,0,1,1,1.94-1.94A1.94,1.94,0,0,1,176.78,506.7Z"
        transform="translate(-129.4 -177.63)" />
</svg>